<?xml version="1.0" encoding="iso-8859-1"?>
<!-- Generator: Adobe Illustrator 16.0.0, SVG Export Plug-In . SVG Version: 6.00 Build 0)  -->
<!DOCTYPE svg PUBLIC "-//W3C//DTD SVG 1.1//EN" "http://www.w3.org/Graphics/SVG/1.1/DTD/svg11.dtd">
<svg version="1.1" id="Capa_1" xmlns="http://www.w3.org/2000/svg" xmlns:xlink="http://www.w3.org/1999/xlink" x="0px" y="0px"
	 width="952px" height="952px" viewBox="0 0 952 952" style="enable-background:new 0 0 952 952;" xml:space="preserve">
<g>
	<g>
		<path d="M24.3,440.7c-5.9,0.7-9.9,6.3-8.6,12.1l38.4,169.5H93l44.5-63.6l11.9,63.6h59.9l46.2-61.1
			c-0.7-25.799-2.2-56.5-5.2-89.299c-4.1-44.8-10.4-85.6-18.5-121.5c-32.8-9.6-73.6-14.4-123.9-9.7c-5.9,0.5-10,6-8.9,11.8
			l18.1,96.601C93.8,440.9,63.4,436.1,24.3,440.7z"/>
		<path d="M952,757.4v-70c0-8.301-6.7-15-15-15H15c-8.3,0-15,6.699-15,15v70c0,8.299,6.7,15,15,15h922
			C945.3,772.4,952,765.699,952,757.4z"/>
		<path d="M616.6,568c-0.1-11.1-2.6-23.201-4-33.1c-2.699-18.301-6.8-36.301-12.1-54c-10.7-35.601-26.1-69.8-43.9-102.401
			c-4.8-8.9-9.399-18.7-15.6-26.8C426.2,200.1,283.8,181.1,231.4,179.6c-0.1,0-0.2,0-0.3,0c-8.1,0-12.9,9.1-8.1,15.8
			c32.6,46.1,52.5,112.2,64.7,179.4c7.7,42.6,12.3,85.7,14.899,124.2c3.801,54.699,3.7,100.4,3.301,123.299h540l90.399-216.5
			c2.4-5.8-1-12.3-7.1-13.6c-41.7-9.2-79.101-12.9-112.4-12.9c-111,0-175.7,41.9-201.1,62.9c-0.7,0.6,1.6,10.2,1.8,11.6
			c2.2,14.5,3.8,29.601,4.4,44.4c1.1,27.1-0.7,54-6.101,80.6C616.4,575.4,616.7,571.799,616.6,568z"/>
	</g>
</g>
<g>
</g>
<g>
</g>
<g>
</g>
<g>
</g>
<g>
</g>
<g>
</g>
<g>
</g>
<g>
</g>
<g>
</g>
<g>
</g>
<g>
</g>
<g>
</g>
<g>
</g>
<g>
</g>
<g>
</g>
</svg>
